# Blender v3.1.2 OBJ File: ''
# www.blender.org
mtllib Platform.mtl
o Lion_092.004_Lion_092.005
v 0.937710 -0.456598 0.403636
v 0.931323 -0.456890 -0.383725
v -1.266338 -0.456602 -0.369264
v -1.260063 -0.456889 0.418221
v -1.264436 -0.821732 -0.371264
v 0.933245 -0.821448 -0.381824
v 0.935743 -0.821741 0.405617
v -1.261986 -0.821449 0.416322
vt 0.651800 0.869200
vt 0.393100 0.869200
vt 0.393100 0.140100
vt 0.651800 0.140100
vt 0.131400 0.869200
vt 0.131400 0.140100
vt 0.390100 0.140100
vt 0.390100 0.869200
vt 0.125245 0.860700
vt 0.003178 0.860500
vt 0.003531 0.131400
vt 0.126543 0.131600
vt 0.264563 0.875484
vt 0.265354 0.997097
vt 0.003027 0.997018
vt 0.002257 0.875312
vt 0.005100 0.127638
vt 0.004900 0.004471
vt 0.734000 0.002279
vt 0.734200 0.127022
vt 0.282170 0.996991
vt 0.281547 0.875356
vt 0.543853 0.875414
vt 0.544450 0.997178
vn -0.0000 1.0000 -0.0000
vn -0.0000 -1.0000 -0.0000
vn 0.0058 0.0001 1.0000
vn 1.0000 -0.0001 -0.0056
vn -0.0057 0.0001 -1.0000
vn -1.0000 -0.0000 0.0055
usemtl 09___Default
s 1
f 1/1/1 2/2/1 3/3/1 4/4/1
f 5/5/2 6/6/2 7/7/2 8/8/2
f 7/9/3 1/10/3 4/11/3 8/12/3
f 6/13/4 2/14/4 1/15/4 7/16/4
f 5/17/5 3/18/5 2/19/5 6/20/5
f 8/21/6 4/22/6 3/23/6 5/24/6
